<svg width="20" height="20" viewBox="0 0 20 20" fill="none" xmlns="http://www.w3.org/2000/svg">
<path d="M18.225 9.58331C17.6916 8.65831 14.7583 4.01664 9.77497 4.16664C5.16664 4.28331 2.49998 8.33331 1.77498 9.58331C1.70184 9.70999 1.66333 9.85369 1.66333 9.99998C1.66333 10.1463 1.70184 10.29 1.77498 10.4166C2.29998 11.325 5.10831 15.8333 10.0166 15.8333H10.225C14.8333 15.7166 17.5083 11.6666 18.225 10.4166C18.2981 10.29 18.3366 10.1463 18.3366 9.99998C18.3366 9.85369 18.2981 9.70999 18.225 9.58331ZM10.1833 14.1666C6.59164 14.25 4.24997 11.175 3.51664 9.99998C4.34998 8.65831 6.52498 5.91664 9.85831 5.83331C13.4333 5.74164 15.7833 8.82498 16.525 9.99998C15.6666 11.3416 13.5166 14.0833 10.1833 14.1666Z" fill="black"/>
<path d="M9.99992 7.08301C9.42306 7.08301 8.85915 7.25407 8.37951 7.57455C7.89986 7.89504 7.52603 8.35056 7.30527 8.88352C7.08452 9.41647 7.02676 10.0029 7.1393 10.5687C7.25184 11.1345 7.52962 11.6542 7.93753 12.0621C8.34543 12.47 8.86513 12.7478 9.43091 12.8603C9.99669 12.9728 10.5831 12.9151 11.1161 12.6943C11.649 12.4736 12.1046 12.0997 12.425 11.6201C12.7455 11.1404 12.9166 10.5765 12.9166 9.99968C12.9166 9.22613 12.6093 8.48426 12.0623 7.93728C11.5153 7.3903 10.7735 7.08301 9.99992 7.08301ZM9.99992 11.2497C9.75269 11.2497 9.51102 11.1764 9.30546 11.039C9.0999 10.9017 8.93968 10.7064 8.84507 10.478C8.75046 10.2496 8.72571 9.99829 8.77394 9.75581C8.82217 9.51334 8.94122 9.29061 9.11604 9.11579C9.29085 8.94098 9.51358 8.82192 9.75606 8.77369C9.99853 8.72546 10.2499 8.75022 10.4783 8.84483C10.7067 8.93943 10.9019 9.09965 11.0393 9.30521C11.1766 9.51077 11.2499 9.75245 11.2499 9.99968C11.2499 10.3312 11.1182 10.6491 10.8838 10.8836C10.6494 11.118 10.3314 11.2497 9.99992 11.2497Z" fill="black"/>
</svg>
