<svg id="a6afe169-8741-4873-ad05-ca02adfbd1f4" data-name="Layer 1" xmlns="http://www.w3.org/2000/svg" viewBox="0 0 18.02 12.69"><defs><style>.a9e612e9-2485-4e27-a574-fadee2767ca0{fill:#fff;}.ed6f7faf-d5e0-414b-a3b8-013e45b4bd1a{fill:#690da6;}</style></defs><title>iconYoutube</title><path class="a9e612e9-2485-4e27-a574-fadee2767ca0" d="M20.63,7.64A2.29,2.29,0,0,0,19,6a53.4,53.4,0,0,0-7-.38A53.4,53.4,0,0,0,5,6,2.29,2.29,0,0,0,3.37,7.64,23.47,23.47,0,0,0,3,12a23.47,23.47,0,0,0,.38,4.36A2.29,2.29,0,0,0,5,18a53.4,53.4,0,0,0,7,.38A53.4,53.4,0,0,0,19,18a2.29,2.29,0,0,0,1.59-1.61A23.47,23.47,0,0,0,21,12a23.47,23.47,0,0,0-.38-4.36" transform="translate(-2.99 -5.65)"/><path class="ed6f7faf-d5e0-414b-a3b8-013e45b4bd1a" d="M9.65,14.68,14.35,12,9.65,9.32Z" transform="translate(-2.99 -5.65)"/></svg>