<svg id="efd09a4a-71da-4acb-8f36-f291320bd042" data-name="f18156c5-d5f0-487e-9a8a-bb4d03ef2e55" xmlns="http://www.w3.org/2000/svg" viewBox="0 0 116.24 43.29"><defs><style>.e87e473d-e3d0-46d1-9881-5e336aad0242{isolation:isolate;}.ab699328-0623-4d49-8ac2-5427155c5cde{fill:#f6f4f9;}.b4aac0df-5249-48a4-a67b-4bcada3ead7f{fill:#f05b91;}</style></defs><title>luanaLogo4</title><g class="e87e473d-e3d0-46d1-9881-5e336aad0242"><g class="e87e473d-e3d0-46d1-9881-5e336aad0242"><path class="ab699328-0623-4d49-8ac2-5427155c5cde" d="M8.16,36.24H19V41H2V15.24H8.16Z" transform="translate(-1.95 -15.24)"/></g><g class="e87e473d-e3d0-46d1-9881-5e336aad0242"><path class="ab699328-0623-4d49-8ac2-5427155c5cde" d="M41.4,15.24V32.11a9.74,9.74,0,0,1-1.22,5,8,8,0,0,1-3.51,3.2,12.36,12.36,0,0,1-5.4,1.09,10.67,10.67,0,0,1-7.42-2.44,8.68,8.68,0,0,1-2.76-6.69v-17h6.25V32.36q.11,4.23,3.93,4.23a3.79,3.79,0,0,0,2.92-1.06,5,5,0,0,0,1-3.45V15.24Z" transform="translate(-1.95 -15.24)"/></g><g class="e87e473d-e3d0-46d1-9881-5e336aad0242"><path class="ab699328-0623-4d49-8ac2-5427155c5cde" d="M59.53,36.2H51L49.53,41H42.89l9.45-25.78h5.84L67.71,41H61Zm-7-4.79H58l-2.78-8.94Z" transform="translate(-1.95 -15.24)"/></g><g class="e87e473d-e3d0-46d1-9881-5e336aad0242"><path class="ab699328-0623-4d49-8ac2-5427155c5cde" d="M91.12,41H84.94L75.8,25V41H69.59V15.24H75.8l9.12,16v-16h6.2Z" transform="translate(-1.95 -15.24)"/></g><g class="e87e473d-e3d0-46d1-9881-5e336aad0242"><path class="ab699328-0623-4d49-8ac2-5427155c5cde" d="M110,36.2h-8.52L100,41H93.37l9.45-25.78h5.84L118.19,41h-6.68Zm-7-4.79h5.54l-2.78-8.94Z" transform="translate(-1.95 -15.24)"/></g></g><g class="e87e473d-e3d0-46d1-9881-5e336aad0242"><path class="b4aac0df-5249-48a4-a67b-4bcada3ead7f" d="M23,58.53a2,2,0,0,1-.89-.83,3.46,3.46,0,0,1-.33-1.65,4.13,4.13,0,0,1,.42-1.72,14.41,14.41,0,0,1,1-1.77c.39-.58.73-1.11,1-1.57q1.77-3,3.59-6a35.83,35.83,0,0,0,2.78-5.61c-.69.11-1.47.22-2.34.32a25.65,25.65,0,0,1-2.65.16c-1.05,0-1.73-.18-2-.57A2.09,2.09,0,0,1,23.09,38a4.08,4.08,0,0,0,.94.14c.4,0,.88,0,1.44,0s1.26,0,2-.06S29.06,38,29.93,38l.48,0,.59-.06a.77.77,0,0,0,.11-.46.93.93,0,0,1,.5.11,1.1,1.1,0,0,1,.35.3q1.3-.17,2.67-.3c.91-.08,1.61-.13,2.09-.14a2.13,2.13,0,0,1,1.37.34,1.42,1.42,0,0,1,.51.84,5.56,5.56,0,0,1,.11,1,3.64,3.64,0,0,0-1.27-.37,18.22,18.22,0,0,0-3-.16l-1,0-1.15.07v.58a5,5,0,0,1-.52,1.83c-.34.81-.78,1.7-1.29,2.67s-1,1.88-1.53,2.74-.9,1.54-1.2,2c-.48.72-1,1.56-1.49,2.5s-1,1.86-1.45,2.76-.89,1.78-1.22,2.57A7.48,7.48,0,0,0,23,58.53Z" transform="translate(-1.95 -15.24)"/></g><g class="e87e473d-e3d0-46d1-9881-5e336aad0242"><path class="b4aac0df-5249-48a4-a67b-4bcada3ead7f" d="M31.76,58.13a2.14,2.14,0,0,1-1.77-.6A2.29,2.29,0,0,1,29.47,56,6.33,6.33,0,0,1,30,53.57a18.67,18.67,0,0,1,1-2,20,20,0,0,1,2.42-3.18,13.92,13.92,0,0,1,3-2.47,6,6,0,0,1,3-1,4.55,4.55,0,0,1,1.51.24,4.61,4.61,0,0,1,1.43.81,1.61,1.61,0,0,1,.48.51.93.93,0,0,1,.14.44c0,.38-.16.58-.49.58s-.4-.15-.51-.45a1.69,1.69,0,0,0-1.62-1.29,3.85,3.85,0,0,0-2.18.91,16.77,16.77,0,0,0-2.4,2.14,22.84,22.84,0,0,0-2.35,3,16.19,16.19,0,0,0-1.58,2.92,4.49,4.49,0,0,0-.36,1,3.09,3.09,0,0,0-.08.75c0,.46.2.69.58.68a3.76,3.76,0,0,0,1.91-1,17.08,17.08,0,0,0,1.88-1.79q1-1.05,1.8-2.07c.56-.69,1-1.22,1.33-1.61l.36-.58a4,4,0,0,1,.32-.46,1,1,0,0,1,.52-.32,2.36,2.36,0,0,1,.75-.12,1.59,1.59,0,0,1,.76.14c.21.1.25.28.13.54a7.93,7.93,0,0,1-.42.79l-1,1.8c-.36.69-.68,1.37-1,2-.15.36-.28.69-.38,1a2.29,2.29,0,0,0-.14.77c0,.33.13.5.39.5a2,2,0,0,0,.8-.32,7.52,7.52,0,0,0,1.7-1.25,20.35,20.35,0,0,0,1.57-1.67c.28-.28.53-.55.76-.81s.44-.53.65-.82a.35.35,0,0,1,.19-.12c.15,0,.23.12.23.35a.5.5,0,0,1-.15.35c-.28.33-.56.67-.83,1s-.57.7-.88,1-.56.67-.85,1-.59.63-.89.91a4.7,4.7,0,0,1-3,1.57,1.35,1.35,0,0,1-1-.43,1.94,1.94,0,0,1-.44-1.39,5.92,5.92,0,0,1,.25-1.66,4.73,4.73,0,0,1,.24-.85c.11-.28.22-.58.32-.88a26.65,26.65,0,0,1-1.72,2.45,11,11,0,0,1-2.07,2A4,4,0,0,1,31.76,58.13Z" transform="translate(-1.95 -15.24)"/><path class="b4aac0df-5249-48a4-a67b-4bcada3ead7f" d="M46.75,58.27a1.82,1.82,0,0,1-1.59-.68,3,3,0,0,1-.51-1.8,8.21,8.21,0,0,1,.45-2.59,17.41,17.41,0,0,1,3.1-5.65,9,9,0,0,1,2.1-1.88,6.24,6.24,0,0,0-2,.46,5.09,5.09,0,0,1-1.82.42,1.33,1.33,0,0,1-1.09-.5,1.53,1.53,0,0,1-.43-.9.21.21,0,0,1,.23-.23.92.92,0,0,1,.42.14,2.26,2.26,0,0,0,1,.3,9.49,9.49,0,0,0,1.23.07,15.64,15.64,0,0,0,1.71-.12l1.24-.15a1.1,1.1,0,0,1,.27,0h.31a2.9,2.9,0,0,1,.75.07q.33.08.33.3c0,.18-.14.37-.42.58a8.93,8.93,0,0,0-1.42,1.48,28.89,28.89,0,0,0-1.82,2.51,23.09,23.09,0,0,0-1.6,2.9c0,.16-.16.46-.34.91s-.33.93-.48,1.45a4.54,4.54,0,0,0-.21,1.38c0,.62.22.92.66.92a4,4,0,0,0,2.33-.91,11.36,11.36,0,0,0,2.24-2.33,20.5,20.5,0,0,0,1.89-3.1A20.2,20.2,0,0,0,54.51,48,9.81,9.81,0,0,0,55,45.15c0-.43,0-.83,0-1.19a4.49,4.49,0,0,0-.21-1,.66.66,0,0,1,.23,0h.2a1.35,1.35,0,0,1,1.29.8,3.79,3.79,0,0,1,.42,1.8,9.72,9.72,0,0,1-1.23,4.45,25.46,25.46,0,0,1-3.31,4.9c-.46.49-1,1-1.54,1.53a9.62,9.62,0,0,1-1.85,1.35A4.62,4.62,0,0,1,46.75,58.27Z" transform="translate(-1.95 -15.24)"/><path class="b4aac0df-5249-48a4-a67b-4bcada3ead7f" d="M57.69,57.84a2.17,2.17,0,0,1-1.77-.59,2.33,2.33,0,0,1-.52-1.5,6.28,6.28,0,0,1,.53-2.46,18.09,18.09,0,0,1,1-2,20.56,20.56,0,0,1,2.42-3.18,14.48,14.48,0,0,1,3-2.47,6,6,0,0,1,3-1,4.38,4.38,0,0,1,2.93,1,1.84,1.84,0,0,1,.48.51,1,1,0,0,1,.14.45c0,.38-.16.57-.49.58s-.4-.15-.5-.46a1.71,1.71,0,0,0-1.63-1.29,3.92,3.92,0,0,0-2.18.91,17.4,17.4,0,0,0-2.4,2.14,23.72,23.72,0,0,0-2.35,3,17.22,17.22,0,0,0-1.58,2.92,5.5,5.5,0,0,0-.36,1,3.19,3.19,0,0,0-.08.75c0,.46.2.69.58.69a3.85,3.85,0,0,0,1.91-1,18.08,18.08,0,0,0,1.88-1.79c.65-.7,1.25-1.39,1.81-2.08s1-1.22,1.32-1.61c.13-.2.25-.39.36-.58s.22-.33.32-.46a1.12,1.12,0,0,1,.52-.31,2.68,2.68,0,0,1,.75-.13,1.79,1.79,0,0,1,.77.15c.2.1.24.28.12.53a7.35,7.35,0,0,1-.42.8l-1,1.79c-.36.7-.68,1.37-1,2-.15.36-.28.7-.38,1a2.47,2.47,0,0,0-.14.77c0,.33.13.49.39.49a1.82,1.82,0,0,0,.8-.32,7.24,7.24,0,0,0,1.7-1.24,22.1,22.1,0,0,0,1.57-1.67c.28-.29.53-.56.76-.82s.44-.53.65-.81a.3.3,0,0,1,.19-.12c.15,0,.23.11.23.34a.49.49,0,0,1-.15.35l-.83,1c-.28.35-.57.69-.88,1s-.56.66-.85,1-.59.62-.89.91a4.7,4.7,0,0,1-3,1.57,1.39,1.39,0,0,1-1-.43A2,2,0,0,1,63,55.9a6.19,6.19,0,0,1,.25-1.65,4.31,4.31,0,0,1,.24-.85c.12-.29.22-.58.32-.89A25,25,0,0,1,62.1,55,11.7,11.7,0,0,1,60,57,4,4,0,0,1,57.69,57.84Z" transform="translate(-1.95 -15.24)"/><path class="b4aac0df-5249-48a4-a67b-4bcada3ead7f" d="M75.44,57.68a1.62,1.62,0,0,1-1.23-.48,1.93,1.93,0,0,1-.52-1.42,3.82,3.82,0,0,1,.25-1.42,9.21,9.21,0,0,1,.72-1.51q.53-.93,1.17-2c.43-.68.79-1.3,1.09-1.84a3.64,3.64,0,0,0,.56-1.73,1.44,1.44,0,0,0-.71-1.26q-.27-.2-.54-.36l-.46-.32-1.06,1.74-1.89,2.63c-.66.9-1.29,1.74-1.9,2.5s-1.12,1.4-1.55,1.92a.37.37,0,0,1-.23.12.35.35,0,0,1-.31-.19.25.25,0,0,1,0-.35q1.47-1.71,2.84-3.49a36.2,36.2,0,0,0,2.53-3.79l.91-1.59a3.08,3.08,0,0,1-.49-.49,5.75,5.75,0,0,1-.62-.86,1.62,1.62,0,0,1-.3-.82.57.57,0,0,1,.21-.48,1.18,1.18,0,0,1,.74-.19c.87,0,1.31.93,1.3,2.8a4.32,4.32,0,0,0,1.2.64l1.25.42a2.69,2.69,0,0,1,1,.59,1.57,1.57,0,0,1,.4,1.15,4.26,4.26,0,0,1-.35,1.52,7,7,0,0,1-.85,1.53c-.28.38-.6.85-1,1.39s-.72,1.08-1,1.62a7.85,7.85,0,0,0-.72,1.47,2.55,2.55,0,0,0-.18.73c0,.34.16.5.47.5a2.15,2.15,0,0,0,1-.36,8.42,8.42,0,0,0,1.66-1.23,18.65,18.65,0,0,0,1.57-1.65c.28-.28.54-.56.76-.83s.44-.55.65-.84a.32.32,0,0,1,.19-.11c.15,0,.23.11.23.34a.5.5,0,0,1-.15.35c-.53.64-1.07,1.32-1.63,2A14.88,14.88,0,0,1,78.73,56a14.5,14.5,0,0,1-1.49,1.06A3.34,3.34,0,0,1,75.44,57.68Z" transform="translate(-1.95 -15.24)"/><path class="b4aac0df-5249-48a4-a67b-4bcada3ead7f" d="M84.32,58a3.13,3.13,0,0,1-2.28-.8,3.09,3.09,0,0,1-.87-2.31,7.49,7.49,0,0,1,.42-2.43,11.27,11.27,0,0,1,.84-2,15.12,15.12,0,0,1,2.1-3,12.78,12.78,0,0,1,2.55-2.2,4.72,4.72,0,0,1,2.43-.85A2.81,2.81,0,0,1,91.3,45a1.83,1.83,0,0,1,.77,1.53,2.65,2.65,0,0,1-.18.88,4.29,4.29,0,0,1-.61,1,12.47,12.47,0,0,1-3.36,3.09,14.77,14.77,0,0,1-4.23,1.67c-.1.34-.18.67-.26,1s-.13.62-.18.9c0,.13,0,.25,0,.37s0,.24,0,.36a1.39,1.39,0,0,0,.38,1.09,1.25,1.25,0,0,0,.9.32,4.36,4.36,0,0,0,1.8-.46,12.23,12.23,0,0,0,1.8-1q.84-.59,1.26-.93c.28-.26.55-.53.82-.8l.89-.91.72-.84c.23-.27.44-.55.64-.83.08-.08.14-.12.19-.12s.24.11.24.34a.49.49,0,0,1-.15.35L91.3,53.65c-.45.56-.92,1.09-1.4,1.61a11.38,11.38,0,0,1-2.31,1.79A6.22,6.22,0,0,1,84.32,58Zm-.4-5.3a18.42,18.42,0,0,0,2.31-1.25,17.46,17.46,0,0,0,2.55-2,11.35,11.35,0,0,0,2-2.46,1.53,1.53,0,0,0,.26-.77c0-.36-.21-.54-.62-.53a2.38,2.38,0,0,0-1,.31,10.59,10.59,0,0,0-3.27,2.85A17,17,0,0,0,83.92,52.67Z" transform="translate(-1.95 -15.24)"/><path class="b4aac0df-5249-48a4-a67b-4bcada3ead7f" d="M95.89,58.15A5.19,5.19,0,0,1,92.8,57a4.08,4.08,0,0,1-1.21-1.37,2,2,0,0,1-.28-1c0-.41.14-.62.42-.62.13,0,.29.1.48.32a3.41,3.41,0,0,1,.53.82,8.87,8.87,0,0,0,.75,1.32,1.37,1.37,0,0,0,1.23.54,1.45,1.45,0,0,0,1.26-.9,7.73,7.73,0,0,0,.76-2.27,25.94,25.94,0,0,0,.39-2.93c.08-1,.13-2,.14-2.82s0-1.52.06-2q-1.78,2.2-3.35,4.17c-1,1.3-2,2.52-3,3.66a.45.45,0,0,1-.27.2c-.07,0-.11-.08-.12-.23a1.16,1.16,0,0,1,.19-.7l1.67-2.07,1.83-2.31L96,46.76q.75-.91,1.08-1.38a2.84,2.84,0,0,1,.52-1.83,3.15,3.15,0,0,1,1.3-1,4,4,0,0,1,1.45-.33,2.28,2.28,0,0,1,1,.15c.18.07.28.16.28.26s-.13.16-.39.24a1.89,1.89,0,0,0-1.29,1,5,5,0,0,0-.46,1.81c-.06.71-.08,1.46-.07,2.25,0,1.18,0,2.42-.11,3.73A19.88,19.88,0,0,1,98.77,55c0,.18-.12.37-.2.58s-.17.41-.25.62c.72-.52,1.41-1.09,2.1-1.7s1.21-1.12,1.6-1.53.52-.57.73-.84l.67-.83a.22.22,0,0,1,.19-.12c.15,0,.23.1.23.31a.58.58,0,0,1-.18.38c-.54.65-1.07,1.33-1.62,2.06a11.23,11.23,0,0,1-1.8,1.9l-1.06.89a7.62,7.62,0,0,1-1.3.9A4.5,4.5,0,0,1,95.89,58.15Z" transform="translate(-1.95 -15.24)"/></g></svg>