<svg width="99" height="99" viewBox="0 0 99 99" fill="none" xmlns="http://www.w3.org/2000/svg">
<g clip-path="url(#clip0_20_189)">
<path d="M54.1234 47.4784C53.1504 46.5853 52.2598 45.6051 51.3124 44.684C51.0411 44.4202 50.6974 44.231 50.2008 43.874C49.6532 44.3662 49.0642 44.7654 48.642 45.2969C46.4252 48.0876 44.2331 50.8977 42.0659 53.7272C39.4601 57.1267 39.4968 57.1633 43.431 59.0439C44.5764 59.5913 45.5188 59.6744 46.4326 58.6225C48.9888 55.6802 51.579 52.7672 54.1668 49.8526C54.8966 49.0308 55.0135 48.2952 54.1234 47.4784Z" fill="white"/>
<path d="M60.1187 54.3026C58.7528 53.1753 58.4346 50.7693 56.0334 50.922C55.8741 50.9319 55.7115 51.1452 55.5792 51.2902C52.6452 54.5072 49.715 57.7284 46.5701 61.183C47.4008 61.9707 48.0409 62.5259 48.6189 63.14C49.5023 64.0785 50.3086 64.1352 51.3366 63.2692C54.1644 60.8873 57.0446 58.5668 59.9322 56.2574C60.7291 55.62 60.8979 54.9456 60.1187 54.3026Z" fill="white"/>
<path d="M39.9691 35.831C38.5296 34.2036 36.8746 32.7662 35.1598 31.1396C34.366 31.8211 33.8682 32.1259 33.5338 32.5573C32.3226 34.1199 31.1376 35.7047 29.9972 37.3195C28.7718 39.0536 28.8738 39.5575 30.8881 40.3755C36.722 42.7444 35.2703 43.8472 39.1724 37.9064C39.587 37.2752 40.2002 36.0923 39.9691 35.831Z" fill="white"/>
<path d="M42.5883 50.1089C44.3426 47.754 46.1376 45.4273 47.8066 43.0134C48.0535 42.6562 47.9181 41.6805 47.5935 41.3453C46.3628 40.0743 45.057 38.8411 43.6145 37.8288C43.1256 37.4859 41.7723 37.5381 41.4598 37.927C40.1223 39.5933 39.0259 41.4531 37.8342 43.2537C42.6593 45.9503 42.8371 46.2267 42.5883 50.1089Z" fill="white"/>
<path d="M39.308 53.6807L33.1001 54.6983C36.6972 56.8373 39.0039 56.3978 39.308 53.6807Z" fill="white"/>
<path d="M37.6075 24C16.8706 24 0 40.8706 0 61.6075C0 82.3445 16.8706 99.2151 37.6075 99.2151C58.3445 99.2151 75.2151 82.3445 75.2151 61.6075C75.2151 40.8706 58.3445 24 37.6075 24ZM50.4812 92.6978C50.4627 91.0411 50.5556 89.3779 50.4224 87.7318C49.9687 82.1215 50.8326 76.9632 54.1815 72.1763C56.3761 69.0389 57.0627 65.1955 57.1882 60.8746C55.0976 62.5324 53.2648 63.9008 51.5336 65.3878C50.3541 66.4009 49.4422 66.507 48.3882 65.2154C45.9321 62.2059 42.6931 60.3747 39.0437 59.1612C36.3525 58.2663 33.6902 57.2821 31.0331 56.289C29.7081 55.7939 28.4242 55.1883 26.9993 54.5822C27.9893 53.8304 29.2171 53.365 29.4084 52.63C29.6292 51.7814 28.9359 50.695 28.64 49.7118C30.6055 51.7135 32.7791 52.8566 35.5716 52.5048C36.4198 52.3978 37.2568 52.1517 38.1054 52.1102C39.4819 52.0437 40.4638 51.5004 40.5508 50.0616C40.6412 48.5708 41.2362 46.9341 39.0919 46.077C35.419 44.6093 31.8109 42.9713 28.2232 41.3025C26.7253 40.6058 25.8315 40.9252 24.9256 42.2757C22.462 45.9476 19.9777 49.6142 17.3021 53.1314C15.9395 54.9224 16.029 56.2898 17.2624 58.0699C21.0215 63.4948 24.607 69.0395 28.3363 74.4854C29.2709 75.8486 29.462 77.1786 29.234 78.7736C28.5278 83.7196 27.9837 88.6889 27.2842 93.6359C13.7628 89.2691 3.95513 76.563 3.95513 61.6075C3.95513 43.0516 19.0516 27.9551 37.6075 27.9551C56.1634 27.9551 71.26 43.0516 71.26 61.6075C71.26 75.6054 62.6677 87.6334 50.4812 92.6978Z" fill="white"/>
</g>
<defs>
<clipPath id="clip0_20_189">
<rect width="99" height="99" fill="white"/>
</clipPath>
</defs>
</svg>
