<svg id="ff987240-8e82-4a11-99eb-ae606244abec" data-name="Layer 1" xmlns="http://www.w3.org/2000/svg" viewBox="0 0 24 24"><defs><style>.bf91f733-d62c-47ef-bc58-7d81f8c33a23{fill:#fff;fill-rule:evenodd;}</style></defs><title>spotify2</title><path class="bf91f733-d62c-47ef-bc58-7d81f8c33a23" d="M22.1,13.64c-3.87-2.3-10.25-2.51-13.94-1.39a1.12,1.12,0,1,1-.65-2.15c4.23-1.28,11.28-1,15.73,1.61a1.12,1.12,0,1,1-1.14,1.93ZM22,17a.94.94,0,0,1-1.29.31A15.73,15.73,0,0,0,8.73,16a.94.94,0,0,1-.55-1.79,17.5,17.5,0,0,1,13.48,1.6A.93.93,0,0,1,22,17ZM20.5,20.31a.75.75,0,0,1-1,.25c-2.82-1.72-6.37-2.11-10.55-1.16A.74.74,0,0,1,8,18.84a.75.75,0,0,1,.56-.9c4.57-1,8.49-.59,11.66,1.34A.75.75,0,0,1,20.5,20.31ZM15,3A12,12,0,1,0,27,15,12,12,0,0,0,15,3Z" transform="translate(-3 -3)"/></svg>