<svg id="adbc6157-0ba7-4981-85fb-471cb1afb4f7" data-name="Layer 1" xmlns="http://www.w3.org/2000/svg" viewBox="0 0 27 27"><defs><style>.a29601f0-eeb7-4fe3-a59e-a7b66bcb5373{fill:#fff;}</style></defs><title>spotify</title><path class="a29601f0-eeb7-4fe3-a59e-a7b66bcb5373" d="M15,1.5A13.5,13.5,0,1,0,28.5,15,13.49,13.49,0,0,0,15,1.5ZM21.19,21a.84.84,0,0,1-1.16.28c-3.17-1.94-7.16-2.37-11.86-1.3a.84.84,0,0,1-.37-1.64c5.14-1.18,9.55-.67,13.11,1.5A.85.85,0,0,1,21.19,21Zm1.65-3.67a1,1,0,0,1-1.44.34A17.75,17.75,0,0,0,7.94,16.07a1.06,1.06,0,0,1-.61-2,19.75,19.75,0,0,1,15.17,1.8,1.05,1.05,0,0,1,.34,1.45ZM23,13.47c-4.36-2.59-11.53-2.82-15.69-1.56a1.26,1.26,0,0,1-.73-2.42C11.34,8,19.26,8.32,24.27,11.3A1.26,1.26,0,1,1,23,13.47Z" transform="translate(-1.5 -1.5)"/></svg>