<svg width="18" height="18" viewBox="0 0 18 18" fill="none" xmlns="http://www.w3.org/2000/svg">
<path d="M9.08552 16.7585C4.80711 16.7585 1.3269 13.2782 1.3269 8.99983C1.3269 4.72142 4.80711 1.24121 9.08552 1.24121C13.3639 1.24121 16.8441 4.72142 16.8441 8.99983C16.8441 13.2782 13.3633 16.7585 9.08552 16.7585ZM9.08552 2.48259C5.49173 2.48259 2.56828 5.40604 2.56828 8.99983C2.56828 12.5936 5.49173 15.5171 9.08552 15.5171C12.6793 15.5171 15.6028 12.5936 15.6028 8.99983C15.6028 5.40604 12.6787 2.48259 9.08552 2.48259ZM9.03587 9.57087H5.05104C4.88642 9.57087 4.72855 9.50547 4.61215 9.38907C4.49575 9.27267 4.43035 9.11479 4.43035 8.95018C4.43035 8.78556 4.49575 8.62769 4.61215 8.51128C4.72855 8.39488 4.88642 8.32949 5.05104 8.32949H8.41518V3.72397C8.41518 3.55935 8.48057 3.40148 8.59698 3.28508C8.71338 3.16867 8.87125 3.10328 9.03587 3.10328C9.20049 3.10328 9.35836 3.16867 9.47476 3.28508C9.59117 3.40148 9.65656 3.55935 9.65656 3.72397V8.95018C9.65656 9.11479 9.59117 9.27267 9.47476 9.38907C9.35836 9.50547 9.20049 9.57087 9.03587 9.57087Z" fill="black"/>
</svg>
