<svg width="57" height="65" viewBox="0 0 57 65" fill="none" xmlns="http://www.w3.org/2000/svg">
<g clip-path="url(#clip0_20_213)">
<path d="M31.0477 8.17138V5.28009H34.8779C35.1067 5.28009 35.3262 5.18928 35.488 5.02762C35.6498 4.86597 35.7407 4.64673 35.7407 4.41812V0.861975C35.7407 0.633365 35.6498 0.414119 35.488 0.252467C35.3262 0.0908154 35.1067 0 34.8779 0H21.925C21.6961 0 21.4767 0.0908154 21.3149 0.252467C21.1531 0.414119 21.0622 0.633365 21.0622 0.861975V4.41812C21.0622 4.64673 21.1531 4.86597 21.3149 5.02762C21.4767 5.18928 21.6961 5.28009 21.925 5.28009H25.7551V8.18685C18.4524 8.86583 11.6922 12.3298 6.87928 17.859C2.06634 23.3882 -0.429323 30.5575 -0.0891573 37.8773C0.251009 45.1971 3.40085 52.1045 8.70589 57.1644C14.0109 62.2243 21.0633 65.0475 28.3976 65.0475C35.7319 65.0475 42.7842 62.2243 48.0892 57.1644C53.3943 52.1045 56.5441 45.1971 56.8843 37.8773C57.2245 30.5575 54.7288 23.3882 49.9158 17.859C45.1029 12.3298 38.3427 8.86583 31.04 8.18685L31.0477 8.17138ZM28.502 58.9894C24.0546 58.9894 19.707 57.6717 16.0092 55.203C12.3113 52.7343 9.42922 49.2254 7.72744 45.1201C6.02565 41.0149 5.58059 36.4976 6.44852 32.1396C7.31646 27.7816 9.45841 23.7787 12.6035 20.637C15.7486 17.4953 19.7555 15.3559 24.1176 14.4895C28.4797 13.6231 33.001 14.0686 37.1097 15.7695C41.2184 17.4705 44.7299 20.3505 47.2002 24.0455C49.6705 27.7404 50.9886 32.0843 50.9879 36.5277C50.9807 42.4834 48.6092 48.193 44.3938 52.404C40.1783 56.6149 34.4631 58.9832 28.502 58.9894V58.9894ZM47.6645 36.5277C47.663 39.4073 47.0122 42.2495 45.7603 44.8432C44.5085 47.437 42.6878 49.7156 40.4336 51.5099L28.502 36.5277L28.3744 17.3787H28.502C33.5774 17.4031 38.4378 19.4285 42.0263 23.0145C45.6148 26.6005 47.6411 31.457 47.6645 36.5277V36.5277ZM46.7901 12.4426C46.7017 12.3543 46.6316 12.2495 46.5837 12.1341C46.5358 12.0187 46.5112 11.895 46.5112 11.77C46.5112 11.6451 46.5358 11.5214 46.5837 11.406C46.6316 11.2906 46.7017 11.1858 46.7901 11.0975L49.2353 8.65069C49.3237 8.56233 49.4286 8.49224 49.5441 8.44442C49.6596 8.3966 49.7834 8.37198 49.9085 8.37198C50.0335 8.37198 50.1573 8.3966 50.2728 8.44442C50.3883 8.49224 50.4933 8.56233 50.5816 8.65069L56.4778 14.5454C56.5662 14.6337 56.6364 14.7385 56.6842 14.8539C56.7321 14.9693 56.7567 15.093 56.7567 15.2179C56.7567 15.3429 56.7321 15.4666 56.6842 15.582C56.6364 15.6974 56.5662 15.8022 56.4778 15.8905L54.0365 18.3334C53.9482 18.4218 53.8432 18.4919 53.7277 18.5397C53.6122 18.5875 53.4884 18.6121 53.3634 18.6121C53.2383 18.6121 53.1145 18.5875 52.999 18.5397C52.8835 18.4919 52.7786 18.4218 52.6902 18.3334L46.7901 12.4426Z" fill="white"/>
</g>
<defs>
<clipPath id="clip0_20_213">
<rect width="57" height="65" fill="white"/>
</clipPath>
</defs>
</svg>
